<svg id="Layer_1" data-name="Layer 1" xmlns="http://www.w3.org/2000/svg" viewBox="0 0 8.73 10.19"><defs><style>.cls-1{fill:#fff;}</style></defs><title>balloon</title><path class="cls-1" d="M22.4,29.26c9.07-7.56.57-7.69-.21-7.73h0c-0.78,0-9.27.17-.23,7.71,0,0.05,0,.11.06,0.17v1H21.79a0.66,0.66,0,0,0-.65.52h0.2a0.22,0.22,0,0,1,0,.43H21.19a0.66,0.66,0,0,0,.6.38h0.81a0.66,0.66,0,0,0,.61-0.4H23.07a0.22,0.22,0,1,1,0-.43h0.16a0.66,0.66,0,0,0-.64-0.5H22.36v-1C22.37,29.35,22.39,29.31,22.4,29.26Zm0.09,1.86a0.22,0.22,0,0,1-.22.22H22.11a0.22,0.22,0,1,1,0-.43h0.16A0.21,0.21,0,0,1,22.49,31.12Z" transform="translate(-17.83 -21.53)"/></svg>