<svg id="Layer_1" data-name="Layer 1" xmlns="http://www.w3.org/2000/svg" viewBox="0 0 171.23 199.34"><defs><style>.cls-1{fill:#fff;}</style></defs><title>rocket</title><path class="cls-1" d="M290.26,375l0.21-.05C292,372.68,291.25,373.72,290.26,375Z" transform="translate(-218.41 -294.65)"/><path class="cls-1" d="M338.53,410.6l0,0.15C339.61,409.45,340.38,408.5,338.53,410.6Z" transform="translate(-218.41 -294.65)"/><path class="cls-1" d="M338.53,410.6c24.48-30,62.18-102.09,48-114.24a0.33,0.33,0,0,1-.2-0.2l-0.22-.13-0.22-.15-0.21-.15c-16-9.76-72.55,48.18-95.23,79.23-3.29,4.54-1.58,2-.21.05l-68,23.15-3.88,30.49,6.22,9,22.3-17.61,11.4,3.89c0.13,5.64,3.21,11.73,8.81,16l-6,8.23,14,10.53,6.13-8.38,0.14,0.15a21.52,21.52,0,0,0,17.49,3.79l7,9.93-11.3,26.15L305.17,494l28.23-13.42,5.1-69.81C337,412.6,335,414.94,338.53,410.6Z" transform="translate(-218.41 -294.65)"/></svg>